<svg width="22" height="22" viewBox="0 0 22 22" fill="none" xmlns="http://www.w3.org/2000/svg">
<path fill-rule="evenodd" clip-rule="evenodd" d="M8.90001 5.49972C8.90001 5.36853 8.96683 5.08528 9.24163 4.83083C9.50669 4.5854 10.0223 4.31639 11 4.31639C11.9777 4.31639 12.4933 4.5854 12.7584 4.83083C13.0332 5.08528 13.1 5.36853 13.1 5.49972H14.4C14.4 5.0198 14.1918 4.38639 13.6416 3.87694C13.0817 3.35848 12.2223 3.01639 11 3.01639C9.77769 3.01639 8.91833 3.35848 8.3584 3.87694C7.8082 4.38639 7.60001 5.0198 7.60001 5.49972H8.90001ZM8.90001 5.5V6.91498H13.1V5.5H14.4V6.91498H16.5645C16.9235 6.91498 17.2145 7.20599 17.2145 7.56498V16.2338C17.2145 16.7364 17.0132 17.2173 16.6566 17.571C16.3001 17.9246 15.8178 18.1223 15.316 18.1223H6.57662C6.0748 18.1223 5.59249 17.9246 5.23606 17.571C4.87945 17.2173 4.67814 16.7364 4.67814 16.2338V7.56498C4.67814 7.20599 4.96915 6.91498 5.32814 6.91498H7.60001V5.5H8.90001ZM7.60001 10.0833V8.21498H5.97814V16.2338C5.97814 16.3882 6.0399 16.5373 6.15157 16.6481C6.26341 16.759 6.4162 16.8223 6.57662 16.8223H15.316C15.4764 16.8223 15.6292 16.759 15.741 16.6481C15.8527 16.5373 15.9145 16.3882 15.9145 16.2338V8.21498H14.4V10.0833H13.1V8.21498H8.90001V10.0833H7.60001Z" fill="white"/>
</svg>
