<svg width="28" height="28" viewBox="0 0 28 28" fill="none" xmlns="http://www.w3.org/2000/svg">
<path d="M22.0256 15.0373L14.0089 22.75L5.99223 15.0373M5.99223 15.0373C5.46345 14.5375 5.04695 13.9367 4.76893 13.2729C4.49092 12.609 4.35743 11.8964 4.37685 11.1799C4.39628 10.4634 4.56821 9.75865 4.88182 9.10991C5.19543 8.46117 5.64391 7.88253 6.19904 7.41043C6.75417 6.93833 7.40392 6.583 8.10736 6.36681C8.8108 6.15063 9.55271 6.07827 10.2864 6.15429C11.02 6.23031 11.7295 6.45307 12.3702 6.80854C13.0108 7.16401 13.5688 7.64449 14.0089 8.21972C14.4509 7.64866 15.0095 7.17238 15.6498 6.82069C16.29 6.46899 16.9981 6.24945 17.7296 6.1758C18.4612 6.10215 19.2006 6.17599 19.9015 6.39268C20.6023 6.60937 21.2496 6.96426 21.8028 7.43512C22.356 7.90599 22.8031 8.48271 23.1163 9.12918C23.4295 9.77565 23.6019 10.4779 23.6228 11.1921C23.6438 11.9063 23.5127 12.617 23.2379 13.2797C22.963 13.9424 22.5503 14.5429 22.0256 15.0436" stroke="#282828" stroke-width="1.61538" stroke-linecap="round" stroke-linejoin="round"/>
</svg>
