<svg width="23" height="23" viewBox="0 0 23 23" fill="none" xmlns="http://www.w3.org/2000/svg">
<path d="M16.5312 17.25C13.9437 17.25 12.9159 14.2485 11.9219 11.3462C10.9803 8.59481 10.005 5.75 7.9062 5.75C7.41615 5.77882 6.94578 5.95286 6.55499 6.24995C6.1642 6.54704 5.87069 6.95373 5.71186 7.41822L4.34839 6.96038C4.38504 6.85256 5.26192 4.3125 7.9062 4.3125C11.0328 4.3125 12.2273 7.80203 13.2825 10.8804C14.1514 13.4169 14.9715 15.8125 16.5312 15.8125C17.0212 15.7837 17.4916 15.6096 17.8824 15.3126C18.2732 15.0155 18.5667 14.6088 18.7255 14.1443L20.0883 14.6021C20.0524 14.7099 19.1755 17.25 16.5312 17.25Z" fill="#8C61FF"/>
<path d="M2.875 20.125V12.2188H4.3125V10.7812H2.875V1.4375H1.4375V20.125C1.4375 20.5062 1.58895 20.8719 1.85853 21.1415C2.12812 21.411 2.49375 21.5625 2.875 21.5625H21.5625V20.125H2.875Z" fill="#8C61FF"/>
<path d="M5.75 10.7812H7.1875V12.2188H5.75V10.7812ZM8.625 10.7812H10.0625V12.2188H8.625V10.7812ZM14.375 10.7812H15.8125V12.2188H14.375V10.7812ZM17.25 10.7812H18.6875V12.2188H17.25V10.7812ZM20.125 10.7812H21.5625V12.2188H20.125V10.7812Z" fill="#8C61FF"/>
</svg>
