<svg width="14" height="13" viewBox="0 0 14 13" fill="none" xmlns="http://www.w3.org/2000/svg">
<g clip-path="url(#clip0_0_5939)">
<path fill-rule="evenodd" clip-rule="evenodd" d="M12.0003 12.3333H8.66699C8.16699 12.3333 7.83366 12 7.83366 11.5V8.16663C7.83366 7.66663 8.16699 7.33329 8.66699 7.33329H12.0003C12.5003 7.33329 12.8337 7.66663 12.8337 8.16663V11.5C12.8337 12 12.5003 12.3333 12.0003 12.3333ZM12.0003 8.58329C12.0003 8.33329 11.8337 8.16663 11.5837 8.16663H9.08366C8.83366 8.16663 8.66699 8.33329 8.66699 8.58329V11.0833C8.66699 11.3333 8.83366 11.5 9.08366 11.5H11.5837C11.8337 11.5 12.0003 11.3333 12.0003 11.0833V8.58329ZM12.0003 5.66663H8.66699C8.16699 5.66663 7.83366 5.33329 7.83366 4.83329V1.49996C7.83366 0.999959 8.16699 0.666626 8.66699 0.666626H12.0003C12.5003 0.666626 12.8337 0.999959 12.8337 1.49996V4.83329C12.8337 5.33329 12.5003 5.66663 12.0003 5.66663ZM12.0003 1.91663C12.0003 1.66663 11.8337 1.49996 11.5837 1.49996H9.08366C8.83366 1.49996 8.66699 1.66663 8.66699 1.91663V4.41663C8.66699 4.66663 8.83366 4.83329 9.08366 4.83329H11.5837C11.8337 4.83329 12.0003 4.66663 12.0003 4.41663V1.91663ZM5.33366 12.3333H2.00033C1.50033 12.3333 1.16699 12 1.16699 11.5V8.16663C1.16699 7.66663 1.50033 7.33329 2.00033 7.33329H5.33366C5.83366 7.33329 6.16699 7.66663 6.16699 8.16663V11.5C6.16699 12 5.83366 12.3333 5.33366 12.3333ZM5.33366 8.58329C5.33366 8.33329 5.16699 8.16663 4.91699 8.16663H2.41699C2.16699 8.16663 2.00033 8.33329 2.00033 8.58329V11.0833C2.00033 11.3333 2.16699 11.5 2.41699 11.5H4.91699C5.16699 11.5 5.33366 11.3333 5.33366 11.0833V8.58329ZM5.33366 5.66663H2.00033C1.50033 5.66663 1.16699 5.33329 1.16699 4.83329V1.49996C1.16699 0.999959 1.50033 0.666626 2.00033 0.666626H5.33366C5.83366 0.666626 6.16699 0.999959 6.16699 1.49996V4.83329C6.16699 5.33329 5.83366 5.66663 5.33366 5.66663ZM5.33366 1.91663C5.33366 1.66663 5.16699 1.49996 4.91699 1.49996H2.41699C2.16699 1.49996 2.00033 1.66663 2.00033 1.91663V4.41663C2.00033 4.66663 2.16699 4.83329 2.41699 4.83329H4.91699C5.16699 4.83329 5.33366 4.66663 5.33366 4.41663V1.91663Z" fill="#23263B"/>
</g>
<defs>
<clipPath id="clip0_0_5939">
<rect width="12.25" height="12.25" fill="white" transform="translate(0.875 0.375)"/>
</clipPath>
</defs>
</svg>
