<svg width="23" height="23" viewBox="0 0 23 23" fill="none" xmlns="http://www.w3.org/2000/svg">
<g clip-path="url(#clip0_0_5833)">
<path d="M22.2963 0.465743C22.2295 0.299582 22.1013 0.165539 21.9383 0.0915008C21.7753 0.0174625 21.59 0.00912894 21.4209 0.0682338C21.2519 0.127339 21.1122 0.249331 21.0308 0.408833C20.9495 0.568335 20.9327 0.753065 20.9841 0.924593C22.0525 3.99509 19.9319 6.28819 18.315 7.51639L17.6618 6.58029C17.4421 6.26634 16.9511 6.00529 16.5693 6.00069L12.9031 6.01679C12.4552 6.03032 12.0193 6.16462 11.6415 6.40549L0.838405 13.9805C0.587124 14.1574 0.416147 14.4266 0.362909 14.7292C0.309671 15.0318 0.378511 15.3432 0.554355 15.5951L5.4637 22.6193C5.8317 23.1426 6.41935 23.0793 6.94375 22.7136L17.7469 15.1374C18.0574 14.9178 18.4162 14.444 18.5427 14.0817L19.6904 10.465C19.8169 10.1039 19.7398 9.55304 19.5202 9.23909L19.1223 8.66869C21.2935 7.00464 23.5475 4.06409 22.2963 0.465743ZM17.2696 11.2274C17.0706 11.3668 16.8461 11.4655 16.6089 11.518C16.3717 11.5705 16.1265 11.5758 15.8872 11.5335C15.648 11.4912 15.4195 11.4022 15.2147 11.2715C15.0099 11.1409 14.8328 10.9711 14.6936 10.772C14.4118 10.3691 14.3013 9.87089 14.3865 9.38663C14.4716 8.90238 14.7455 8.47171 15.1479 8.18914C15.4633 7.96813 15.8399 7.85121 16.2251 7.85471C16.6102 7.85822 16.9847 7.98198 17.2961 8.20869C16.9833 8.39729 16.7682 8.50769 16.728 8.52494C16.5854 8.59291 16.4702 8.70729 16.4011 8.84933C16.3321 8.99137 16.3133 9.15264 16.3479 9.30673C16.3825 9.46082 16.4685 9.59859 16.5916 9.69745C16.7148 9.79632 16.8679 9.85042 17.0258 9.85089C17.1247 9.85089 17.2259 9.82789 17.3214 9.78304C17.5445 9.67724 17.7837 9.55189 18.0332 9.40354C18.0906 9.74861 18.0494 10.1029 17.9143 10.4256C17.7792 10.7482 17.5557 11.0262 17.2696 11.2274Z" fill="#72B9FF"/>
</g>
<defs>
<clipPath id="clip0_0_5833">
<rect width="23" height="23" fill="white"/>
</clipPath>
</defs>
</svg>
