<svg width="28" height="28" viewBox="0 0 28 28" fill="none" xmlns="http://www.w3.org/2000/svg">
<path fill-rule="evenodd" clip-rule="evenodd" d="M5.72574 11.9147C5.72574 8.56393 8.44211 5.84756 11.7929 5.84756C15.1437 5.84756 17.8601 8.56393 17.8601 11.9147C17.8601 15.2656 15.1437 17.9819 11.7929 17.9819C8.44211 17.9819 5.72574 15.2656 5.72574 11.9147ZM11.7929 4.23218C7.54996 4.23218 4.11035 7.67178 4.11035 11.9147C4.11035 16.1577 7.54996 19.5973 11.7929 19.5973C13.6235 19.5973 15.3045 18.9571 16.6243 17.8883L22.0248 23.2888C22.3402 23.6043 22.8516 23.6043 23.167 23.2888C23.4824 22.9734 23.4824 22.462 23.167 22.1466L17.7665 16.7461C18.8353 15.4263 19.4755 13.7453 19.4755 11.9147C19.4755 7.67178 16.0359 4.23218 11.7929 4.23218Z" fill="#282828"/>
</svg>
