<svg width="20" height="20" viewBox="0 0 20 20" fill="none" xmlns="http://www.w3.org/2000/svg">
<path d="M6.01415 9.08916C5.81237 8.72608 5.49574 8.44029 5.11396 8.27664C4.73218 8.11299 4.30686 8.08075 3.90478 8.18497C3.50269 8.2892 3.14659 8.52399 2.89238 8.85249C2.63817 9.181 2.50024 9.58462 2.50024 9.99999C2.50024 10.4154 2.63817 10.819 2.89238 11.1475C3.14659 11.476 3.50269 11.7108 3.90478 11.815C4.30686 11.9192 4.73218 11.887 5.11396 11.7233C5.49574 11.5597 5.81237 11.2739 6.01415 10.9108M6.01415 9.08916C6.16415 9.35916 6.24998 9.66916 6.24998 9.99999C6.24998 10.3308 6.16415 10.6417 6.01415 10.9108M6.01415 9.08916L13.9858 4.66082M6.01415 10.9108L13.9858 15.3392M13.9858 4.66082C14.1027 4.88094 14.2623 5.07555 14.4552 5.23327C14.6482 5.39098 14.8707 5.50865 15.1097 5.57939C15.3486 5.65012 15.5993 5.67251 15.847 5.64524C16.0948 5.61796 16.3346 5.54158 16.5524 5.42054C16.7703 5.29951 16.9618 5.13626 17.1159 4.94034C17.2699 4.74441 17.3833 4.51975 17.4495 4.27948C17.5157 4.03921 17.5333 3.78815 17.5013 3.54099C17.4694 3.29382 17.3885 3.05552 17.2633 2.83999C17.0167 2.41528 16.6133 2.10427 16.1398 1.97384C15.6663 1.8434 15.1606 1.90394 14.7313 2.14245C14.3019 2.38096 13.9833 2.7784 13.8439 3.24932C13.7046 3.72024 13.7555 4.22706 13.9858 4.66082ZM13.9858 15.3392C13.8662 15.5545 13.7902 15.7912 13.7621 16.0359C13.7339 16.2806 13.7543 16.5285 13.822 16.7653C13.8897 17.0021 14.0033 17.2233 14.1565 17.4162C14.3096 17.6091 14.4993 17.77 14.7146 17.8896C14.9299 18.0092 15.1666 18.0852 15.4113 18.1133C15.656 18.1414 15.9039 18.1211 16.1407 18.0534C16.3775 17.9857 16.5987 17.8721 16.7916 17.7189C16.9845 17.5658 17.1454 17.3761 17.265 17.1608C17.5065 16.726 17.5655 16.213 17.4288 15.7347C17.2921 15.2564 16.9711 14.852 16.5362 14.6104C16.1014 14.3688 15.5884 14.3099 15.1101 14.4466C14.6318 14.5832 14.2274 14.9043 13.9858 15.3392Z" stroke="#282828" stroke-width="1.5" stroke-linecap="round" stroke-linejoin="round"/>
</svg>
