<svg width="13" height="15" viewBox="0 0 13 15" fill="none" xmlns="http://www.w3.org/2000/svg">
<path d="M10.1562 2.25H8.9375C8.9375 2.25 7.84672 2.25 6.5 2.25C5.15328 2.25 4.0625 2.25 4.0625 2.25H2.84375C2.17344 2.25 1.625 2.84062 1.625 3.5625V11.4375C1.625 12.1594 2.17344 12.75 2.84375 12.75H10.1562C10.8266 12.75 11.375 12.1594 11.375 11.4375V3.5625C11.375 2.84062 10.8266 2.25 10.1562 2.25ZM10.1562 11.4375H2.84375V3.5625H4.0625C4.0625 3.5625 4.34036 3.5625 4.67552 3.5625C5.01068 3.5625 5.28125 3.5625 5.28125 3.5625H7.71875C7.71875 3.5625 7.96436 3.5625 8.29951 3.5625C8.63467 3.5625 8.87725 3.5625 8.9375 3.5625H10.1562V11.4375Z" fill="#23263B"/>
</svg>
