<svg width="16" height="17" viewBox="0 0 16 17" fill="none" xmlns="http://www.w3.org/2000/svg">
<path d="M7.65335 2.83265C7.68155 2.76387 7.72957 2.70503 7.7913 2.66362C7.85303 2.62221 7.92568 2.6001 8.00002 2.6001C8.07435 2.6001 8.14701 2.62221 8.20874 2.66362C8.27047 2.70503 8.31849 2.76387 8.34669 2.83265L9.76335 6.23998C9.78987 6.30374 9.83346 6.35894 9.88933 6.39952C9.9452 6.4401 10.0112 6.46448 10.08 6.46998L13.7587 6.76465C14.0914 6.79131 14.226 7.20665 13.9727 7.42331L11.17 9.82465C11.1177 9.86944 11.0786 9.92778 11.0572 9.99328C11.0358 10.0588 11.0329 10.1289 11.0487 10.196L11.9054 13.786C11.9226 13.858 11.9181 13.9335 11.8924 14.003C11.8667 14.0724 11.821 14.1327 11.7611 14.1763C11.7012 14.2198 11.6297 14.2445 11.5557 14.2475C11.4817 14.2504 11.4085 14.2313 11.3454 14.1926L8.19535 12.2693C8.13651 12.2335 8.06893 12.2145 8.00002 12.2145C7.93111 12.2145 7.86353 12.2335 7.80469 12.2693L4.65469 14.1933C4.59152 14.232 4.51832 14.2511 4.44432 14.2481C4.37033 14.2452 4.29885 14.2204 4.23893 14.1769C4.17901 14.1334 4.13333 14.0731 4.10765 14.0036C4.08198 13.9342 4.07747 13.8587 4.09469 13.7866L4.95135 10.196C4.96724 10.1289 4.96432 10.0588 4.94291 9.99325C4.92151 9.92773 4.88244 9.86939 4.83002 9.82465L2.02735 7.42331C1.97123 7.37505 1.93063 7.31128 1.91065 7.24C1.89068 7.16873 1.89222 7.09314 1.9151 7.02274C1.93797 6.95235 1.98114 6.89028 2.0392 6.84436C2.09725 6.79844 2.16758 6.7707 2.24135 6.76465L5.92002 6.46998C5.98885 6.46448 6.05483 6.4401 6.1107 6.39952C6.16657 6.35894 6.21017 6.30374 6.23669 6.23998L7.65335 2.83265Z" stroke="#D48D3B" stroke-width="1.5" stroke-linecap="round" stroke-linejoin="round"/>
</svg>
