<svg width="28" height="28" viewBox="0 0 28 28" fill="none" xmlns="http://www.w3.org/2000/svg">
<path fill-rule="evenodd" clip-rule="evenodd" d="M9.65559 9.333C9.65559 7.20175 11.3833 5.47403 13.5146 5.47403C15.6458 5.47403 17.3735 7.20175 17.3735 9.333C17.3735 11.4643 15.6458 13.192 13.5146 13.192C11.3833 13.192 9.65559 11.4643 9.65559 9.333ZM13.5146 3.85864C10.4912 3.85864 8.04021 6.3096 8.04021 9.333C8.04021 12.3564 10.4912 14.8074 13.5146 14.8074C16.538 14.8074 18.9889 12.3564 18.9889 9.333C18.9889 6.3096 16.538 3.85864 13.5146 3.85864ZM8.45293 19.3171C9.17663 18.5934 10.1582 18.1868 11.1816 18.1868H15.8483C16.8718 18.1868 17.8533 18.5934 18.577 19.3171C19.3007 20.0408 19.7073 21.0224 19.7073 22.0458V24.3792C19.7073 24.8252 20.0689 25.1868 20.515 25.1868C20.961 25.1868 21.3227 24.8252 21.3227 24.3792V22.0458C21.3227 20.5939 20.7459 19.2015 19.7193 18.1749C18.6926 17.1482 17.3002 16.5715 15.8483 16.5715H11.1816C9.72974 16.5715 8.33732 17.1482 7.31068 18.1749C6.28404 19.2015 5.70728 20.5939 5.70728 22.0458V24.3792C5.70728 24.8252 6.06889 25.1868 6.51497 25.1868C6.96104 25.1868 7.32266 24.8252 7.32266 24.3792V22.0458C7.32266 21.0224 7.72923 20.0408 8.45293 19.3171Z" fill="#282828"/>
</svg>
